# xmcd
#
# Track frame offsets: 
#        183
#        15068
#        25615
#        42250
#        55593
#        68460
#        80490
#        101008
#        119278
#        131950
#        144848
#        157220
#        173928
#        189545
#        201808
#        219310
#        238560
#        254645
#        266638
#        284425
#
# Disc length: 4043 seconds
#
# Revision: 5
# Processed by: cddbd v1.5.2PL0 Copyright (c) Steve Scherf et al.
# Submitted via: ExactAudioCopyFreeDBPlugin 1.0
#
DISCID=180fc914
DTITLE=Various Artist - That's Country - CD 2
DYEAR=1995
DGENRE=Country
TTITLE0=Olivia Newton John - Take Me Home Country Roads
TTITLE1=Kris Kristofferson - Help Me Make It Through The Night
TTITLE2=Dr. Hook - More Like The Movies
TTITLE3=Tammy Wynette - D.I.V.O.R.C.E.
TTITLE4=Willie Nelson - Crazy
TTITLE5=Glen Campbell - Galveston
TTITLE6=Suzy Buguss - Take It To The Limit
TTITLE7=America - Horse With No Name
TTITLE8=Don Williams - You're My Best Friend
TTITLE9=Bobbie Gentry - I'll Never Fall In Love Again
TTITLE10=Nilsson - Everybody's Talkin'
TTITLE11=Emmylou Harris - Here, There And Everywhere
TTITLE12=Gram Parsons - Brass Buttons
TTITLE13=Billy Jo Spears - What I've Got In Mind
TTITLE14=Kenny Rogers - Lady
TTITLE15=Don McLean - And I Love You So
TTITLE16=Alabama - Feels So Right
TTITLE17=Charlie Rich - The Most Beautiful Girl
TTITLE18=Lee Greenwood - The Wind Beneath My Wings
TTITLE19=From A Distance - Nanci Griffith
EXTD=
EXTT0=
EXTT1=
EXTT2=
EXTT3=
EXTT4=
EXTT5=
EXTT6=
EXTT7=
EXTT8=
EXTT9=
EXTT10=
EXTT11=
EXTT12=
EXTT13=
EXTT14=
EXTT15=
EXTT16=
EXTT17=
EXTT18=
EXTT19=
PLAYORDER=
